# xmcd
#
# Track frame offsets:
#	150
#	12789
#	28924
#	45950
#	59788
#	71490
#	84917
#	96659
#	111698
#	130413
#	141493
#	162302
#
# Disc length: 2301 seconds
#
# Revision: 1
# Processed by: cddbd v1.5.2PL0 Copyright (c) Steve Scherf et al.
# Submitted via: audiograbber 1.83.01
#
DISCID=b208fb0c
DTITLE=T Bone Country - A Taste of T Bone
DYEAR=2016
DGENRE=Country
TTITLE0=Come Early Morning
TTITLE1=Mona Lisa
TTITLE2=It's a matter of Time
TTITLE3=Blue Ridge Mountain Girl
TTITLE4=Ghost Story
TTITLE5=Trad. Session
TTITLE6=Lucky Guess
TTITLE7=Middle of Nowhere
TTITLE8=Nobody's Darling
TTITLE9=Rock Of Ages
TTITLE10=The New 40
TTITLE11=May The Wind Be Always At Your Back
EXTD=
EXTT0=
EXTT1=
EXTT2=
EXTT3=
EXTT4=
EXTT5=
EXTT6=
EXTT7=
EXTT8=
EXTT9=
EXTT10=
EXTT11=
PLAYORDER=
